<svg width="629" height="154" viewBox="0 0 629 154" fill="none" xmlns="http://www.w3.org/2000/svg">
<path d="M10.1034 0.954996H108.713L138.469 25.694V116H108.713L108.713 37.458L94.7004 25.694H39.8594L10.1034 0.954996ZM0.415434 9.25899L29.8254 33.825V54.239H94.8734V78.805H29.8254L29.8254 116H0.415434L0.415434 9.25899ZM341.369 25.694V116H311.613V0.954996L341.369 25.694ZM388.834 0.954996V91.261H456.996L486.752 116H359.424V0.954996H388.834ZM599.273 91.261L628.683 116L500.663 116V9.25899L530.419 33.998V91.261H599.273ZM510.351 0.954996L628.683 0.954996L599.1 25.694H540.107L510.351 0.954996ZM544.086 70.847V46.281H599.1V70.847H544.086Z" fill="white"/>
<path d="M254.958 91.261L284.541 116V128.975L254.958 153.714V116H186.277L156.521 91.434V9.25899L186.277 33.998V79.497L200.463 91.261H254.958ZM204.096 46.281H293.537V107.869L263.781 83.303V70.847H233.16L204.096 46.281ZM293.537 0.954996L263.781 25.694H195.965L166.209 0.954996L293.537 0.954996Z" fill="#93161A"/>
</svg>
